<svg width="33" height="33" viewBox="0 0 33 33" fill="none" xmlns="http://www.w3.org/2000/svg">
    <path d="M16.5 0.999999C7.93959 0.999998 1 7.93958 1 16.5C1 25.0604 7.93959 32 16.5 32C25.0604 32 32 25.0604 32 16.5C32 7.93958 25.0604 0.999999 16.5 0.999999Z" fill="#FF0303" stroke="#F2F0E8" stroke-width="0.87" stroke-miterlimit="10"/>
    <g id="Group">
        <path id="Vector_2" d="M15.4927 13.9509C17.1352 13.818 18.9155 13.8085 19.8649 15.3798C20.7527 16.8515 20.1878 19.4483 20.3871 21.1336C20.3492 21.5513 20.1878 21.6653 19.7842 21.708C17.6764 21.9121 15.3123 21.6273 13.1807 21.7935C12.7392 21.7602 12.6063 21.6273 12.5636 21.1905C12.4544 20.0749 12.4591 18.2662 12.5113 17.1316C12.592 15.3181 13.6649 14.1075 15.4927 13.9556V13.9509Z" fill="white"/>
        <path id="Vector_3" d="M11.7898 21.8083L7.85428 21.8605C7.53146 21.8605 7.40803 21.5234 7.37955 21.2576C7.2941 20.3793 7.2846 18.8649 7.34157 17.9819C7.48399 15.651 9.55857 15.6463 11.4005 15.7507C11.486 15.7554 11.8515 15.7792 11.861 15.8694C11.7661 16.1162 11.6949 16.4391 11.6759 16.7002C11.5857 18.0959 11.6664 20.0233 11.7376 21.4475C11.7423 21.5709 11.7993 21.6848 11.7946 21.813L11.7898 21.8083Z" fill="white"/>
        <path id="Vector_4" d="M21.1753 21.6895C21.1658 21.5661 21.218 21.4474 21.2228 21.324C21.256 19.9093 21.2845 18.0151 21.1611 16.6289C21.1373 16.3393 21.0471 16.0307 20.9617 15.7506C20.9712 15.6604 21.332 15.6272 21.4127 15.6224C23.3496 15.4658 25.334 15.4231 25.5238 17.8442C25.5951 18.7177 25.6283 20.1561 25.5666 21.0249C25.5476 21.2907 25.4336 21.6373 25.1061 21.642L21.1706 21.6943L21.1753 21.6895Z" fill="white"/>
        <path id="Vector_5" d="M9.97154 10.5996C12.9149 10.1818 13.3659 14.5209 10.6457 14.8769C7.7403 15.2567 7.27506 10.9841 9.97154 10.5996Z" fill="white"/>
        <path id="Vector_6" d="M22.0486 10.4428C24.9872 10.006 25.4857 14.3736 22.7228 14.7201C19.8411 15.0809 19.3759 10.8415 22.0486 10.4428Z" fill="white"/>
        <path id="Vector_7" d="M16.2998 8.76228C19.1434 8.70531 19.2146 13.0254 16.3947 13.0966C13.57 13.1678 13.4419 8.81925 16.2998 8.76228Z" fill="white"/>
    </g>
</svg>

